<svg xmlns="http://www.w3.org/2000/svg" width="1591.088" height="584" viewBox="0 0 1591.088 584">
  <g id="Untitled_1_" data-name="Untitled (1)" transform="translate(-653.291 -320)">
    <path id="Path_1" data-name="Path 1" d="M21108.564,16855.332l6.387,71.684q-26.795,11-67.248,11t-64.941-8.516q-24.483-8.517-38.5-26.793-14.194-18.275-19.7-43.117-5.5-24.662-5.5-60.859t5.5-61.037q5.5-25.017,19.7-43.293,27.146-35.312,100.072-35.311a266.77,266.77,0,0,1,37.973,3.2q22,3.193,32.646,7.807l-12.775,65.295q-27.68-6.032-50.748-6.033-22.887,0-31.936,4.26-8.874,4.257-8.873,17.033v111.605a169.718,169.718,0,0,0,33.713,3.371Q21080.528,16865.623,21108.564,16855.332Zm137.152-143.012q102.2,0,102.2,70.264v149.045h-42.586l-24.307-24.309q-12.422,14.549-33.713,22.535-21.29,8.159-40.1,8.16-18.981,0-30.518-3.016a77.9,77.9,0,0,1-22.535-10.113q-24.308-15.439-24.307-57.135,0-76.649,115.863-76.65h17.033v-15.26q-13.661-.888-22.533-.887-48.261,0-82.684,11.533l-10.293-61.037q42.583-13.131,98.477-13.131m-29.809,146.027v17.566h17.387q18.809,0,24.133-4.258a13.622,13.622,0,0,0,5.322-11.18v-20.049h-17.564q-15.261,0-22.357,3.193Q21215.908,16846.814,21215.908,16858.348Zm157.523-84.635v-55h21.293v-34.068l85.168-21.291v55.359h29.455v55h-29.455v97.057a199.1,199.1,0,0,0,25.2,3.016l-3.9,62.457q-58.377,0-75.764-6.387-21.826-7.632-27.326-20.406a44.031,44.031,0,0,1-3.371-17.92v-117.816Zm221.008,30.164h-42.582q-21.293-111.076-21.293-112.848v-24.664q0-11.534,15.791-11.533h53.586q15.794,0,15.793,11.533v24.664Q21615.734,16692.8,21594.439,16803.877Zm73.459-76.652s4.555-2.482,13.662-7.451q13.84-7.453,61.568-7.453,47.555,0,87.654,13.131l-9.76,58.021a242.962,242.962,0,0,0-66.537-9.406q-10.113,0-28.922,1.775v13.484q69.023,0,93.686,20.584,12.419,10.113,17.564,22.355,4.969,12.064,4.969,29.277a112.459,112.459,0,0,1-3.9,30.873q-4.081,13.661-12.422,21.824a91.129,91.129,0,0,1-17.211,13.131q-9.047,5.145-23.42,7.273-22.535,3.372-52.344,3.371-52.875,0-95.459-12.42l10.645-60.326q35.842,11,77.539,11a315.079,315.079,0,0,0,34.955-1.773v-13.486q-68.136,0-94.039-17.92-25.729-17.921-25.729-59.441T21667.9,16727.225Zm213.168,102.2v-61.391h66v-66.006h61.217v66.006h66.537v61.391h-66.537v66.361h-61.217v-66.361Z" transform="translate(-19830.445 -16178.189)" fill="#666"/>
    <path id="Path_3" data-name="Path 3" d="M253.111,321.918A89.235,89.235,0,0,1,249,332.491a11.848,11.848,0,0,0-1.86-.1c-.49,5.58-6.559,9.888-9.79,12.629-3.329,4.6-10.867,9.3-16.545,10.182-1.371.2-14.1-.783-13.51-2.643-.2.685.979.685.979,1.469-.783.2-2.252-.49-2.937,0-2.448,1.762-8.126,15.077-13.706,9.2a10.369,10.369,0,0,0,1.175.979c-4.308-2.545-8.909,8.126-9.5,10.573-.881,3.818.1,11.063,1.762,14.685,0,6.559,4.8,15.468,4.6,22.909-.294,8.811-7.245,25.748-18.21,15.273-8.517,2.643-11.063-35.44-12.923-41.608-1.958-6.364-11.748-20.559-9.007-23.3-6.461,1.273-3.329-27.9-4.308-31.524-1.469-.294-.881.783-3.133,1.469.979-2.35-2.154.685.881-2.35h-.2c-5.287,1.175-4.406-6.07-6.07-8.615-.685-.979-7.636-9.007-7.636-8.909-.1-.881.2-1.566-.1-2.35-1.273-1.273-8.322-14.294-10.573-13.51.392-.1,1.664-1.566,1.566-1.762-1.175.392-1.371,0-2.741.392-.49-1.077.587-2.937,1.371-4.7-6.07,1.762-14.783-17.133-18.307-15.762-.2.2.587-3.916,1.077-2.741-2.35.685-15.175-16.643-14-17.818,2.154-2.056-15.37-19.286-18.405-20.559-3.916-1.664-52.671-5.482-52.671-6.364a5.778,5.778,0,0,0-.2-1.371c-1.958,1.273-8.713-2.056-9.594-.881,1.077-1.469-3.133-7.245-4.308-6.755.881-1.958-4.6-10.182-.881-10.182h-.1c-4.993-.1,7.343-13.8,9.1-14.881,1.958-1.273,14.979-4.21,14.979-4.21,0,5.091,12.727,2.839,13.51,5.189,1.371-1.958,21.538.1,22.028.1.783-.1,5.482.783,7.049.294C70.819,197,93.826,204.241,94.609,211c.685,6.266,10.378,10.378,14.294,14.391,6.266,6.461,9.5,16.643,17.916,20.755.1-.392,4.014-6.07,4.406-4.9-2.545-8.224,14.391-16.545,12.238-22.321,3.427,2.154,5.385-6.07,7.93-2.937,0-9.5,14.881-13.119,20.266-18.895a1.779,1.779,0,0,0-1.077-.979c3.329-2.448,10.378-8.517,14.2-9.692-1.469-7.343,11.944-11.944,16.252-16.056,13.706-13.217,12.629-27.9,18.405-44.741,3.427-9.888,9.4-18.7,9.986-29.468.1-2.937-1.566-26.629.49-26.433-3.622-.49-.294-3.133-1.371-4.8,3.427,1.273,4.406-9.007,1.664-16.643-2.643-7.343-13.021-28.783-3.035-34.559,5.385-3.133,27.706,7.343,28.685,8.615.979-.979,26.237-3.524,26.923-3.231C285.026,22.439,291,6.383,292.956,2.369c4.993-10.378,10.182,16.643,12.336,17.622.1-.2.685-6.853.783-7.245,0,2.448-.2,5.091-.2,7.538,3.818-2.937,12.629,7.734,14.685,10.965,8.419,12.923,12.629,10.573,26.042,11.259-2.937,1.469-8.517,2.252-11.748,3.524,4.112.2,20.363-3.72,3.133-.2,2.154.979,7.049-.1,9.594.392-4.406.392-8.615,0-13.119.49,4.6,2.545,15.175,1.566,17.818,7.049.587.1-24.279-6.461-12.531-2.839-11.161.1-2.154-.685,2.252,2.741-13.51-1.664-6.951,3.524-6.951,11.259-1.762,2.937-1.958,7.049-3.329,9.986-4.6,9.692-.881,20.853-7.147,28.979.49.2,1.566.2,1.664.392-.979.587-.979,17.524.587,21.832-6.755,3.231,12.923,15.566,13.51,14.979-1.566,4.7,22.419,15.566,22.419,25.65,8.224-5.189,19.678-22.615,29.077-23.888,3.035-.392,8.126-1.077,10.475-3.035,15.468-12.531,35.636-9.4,42.979,8.126-4.308,13.51-16.252,9.888-26.335,14.783,2.252.392-19.384,37.1-23.986,38.671-1.273,3.622-12.727,11.65-16.349,12.629,2.643.979-20.363,8.517-20.853,10.084-.1-.49-.2-.881-.294-1.371-.783,2.35-13.706,4.406-14,2.35-.685,1.371-4.112,4.7-4.112,5.874,12.923,4.6,26.825,4.112,43.272,15.468,18.7,12.923,2.545,23.594-9.594,28.489-9.594,3.818-24.573-18.8-29.174-7.343-1.566-3.231-3.916,1.958-5.678-.783-.49,3.329-9.888,1.86-13.217,5.385-3.329,3.427-19.678.2-24.377-.1,0,1.664-.294,2.545-1.664,2.545a1.45,1.45,0,0,0,1.664.783,8.074,8.074,0,0,1-2.545.979c3.72,3.818-15.664,18.6-19.678,18.993.1,1.762-.1,1.469-.392,3.231-.49.1-.979-.979-1.371-.685-.392,1.175,0,2.448-.783,3.524a15.955,15.955,0,0,0-2.154-1.664c-1.469,1.86-3.427,2.643-5.189,5.776h0C260.257,304.687,256.146,313.6,253.111,321.918Z" transform="translate(653.291 343.191) rotate(-2.954)" fill="#666" fill-rule="evenodd"/>
    <rect id="Rectangle_1" data-name="Rectangle 1" width="1591" height="584" transform="translate(653.313 320)" fill="none"/>
  </g>
</svg>
